# This file uses centimeters as units for non-parametric coordinates.

g default
v -18.000000 -13.000000 0.000000
v -18.000000 -1.000000 0.000000
v -30.000000 -1.000000 0.000000
v -30.000000 -13.000000 0.000000
v -30.000000 -10.000000 0.000000
v -18.000000 -10.000000 0.000000
v -30.000000 -4.000000 0.000000
v -18.000000 -4.000000 0.000000
v -28.000000 -13.000000 0.000000
v -28.000000 -10.000000 0.000000
v -28.000000 -4.000000 0.000000
v -28.000000 -1.000000 0.000000
v -20.000000 -13.000000 0.000000
v -20.000000 -10.000000 0.000000
v -20.000000 -4.000000 0.000000
v -20.000000 -1.000000 0.000000
v -27.685255 -4.236059 0.000000
v -20.314745 -4.236059 0.000000
v -27.685255 -9.763942 0.000000
v -20.314745 -9.763942 0.000000
v -28.000000 -4.000000 0.115512
v -20.000000 -4.000000 0.115512
v -27.685255 -4.236059 0.115512
v -20.314745 -4.236059 0.115512
v -28.000000 -10.000000 0.115512
v -27.685255 -9.763942 0.115512
v -20.000000 -10.000000 0.115512
v -20.314745 -9.763942 0.115512
vt 0.869985 0.002441
vt 0.869985 0.877230
vt 0.002441 0.002441
vt 0.002441 0.877230
vt 0.002441 0.215950
vt 0.869985 0.220925
vt 0.002441 0.658742
vt 0.869985 0.663760
vt 0.148998 0.002441
vt 0.144193 0.214104
vt 0.144947 0.658166
vt 0.142275 0.877230
vt 0.730238 0.002441
vt 0.727591 0.221463
vt 0.728270 0.665537
vt 0.723416 0.877230
vt 0.694288 0.637415
vt 0.178745 0.630319
vt 0.178176 0.242219
vt 0.693759 0.249297
vt 0.722586 0.660099
vt 0.150249 0.652454
vt 0.173466 0.635992
vt 0.699954 0.642806
vt 0.149877 0.219540
vt 0.172509 0.236829
vt 0.722280 0.227168
vt 0.699046 0.243631
vn 0.000000 0.000000 1.000000
vn 0.000000 0.000000 1.000000
vn 0.000000 0.000000 1.000000
vn 0.000000 0.000000 1.000000
vn 0.000000 0.000000 1.000000
vn 0.000000 0.000000 1.000000
vn 0.000000 0.000000 1.000000
vn 0.000000 0.000000 1.000000
vn 0.000000 0.000000 1.000000
vn 0.000000 0.000000 1.000000
vn 0.000000 0.000000 1.000000
vn 0.000000 0.000000 1.000000
vn 0.000000 0.000000 1.000000
vn 0.000000 0.000000 1.000000
vn 0.000000 0.000000 1.000000
vn 0.000000 0.000000 1.000000
vn 0.000000 0.000000 1.000000
vn 0.000000 0.000000 1.000000
vn 0.000000 0.000000 1.000000
vn 0.000000 0.000000 1.000000
vn 0.000000 0.000000 1.000000
vn 0.000000 0.000000 1.000000
vn 0.000000 0.000000 1.000000
vn 0.000000 0.000000 1.000000
vn 0.000000 0.000000 1.000000
vn 0.000000 0.000000 1.000000
vn 0.000000 0.000000 1.000000
vn 0.000000 0.000000 1.000000
vn 0.000000 0.000000 1.000000
vn 0.000000 0.000000 1.000000
vn 0.000000 0.000000 1.000000
vn 0.000000 0.000000 1.000000
vn -0.000000 0.000000 1.000000
vn -0.000000 0.000000 1.000000
vn -0.000000 0.000000 1.000000
vn -0.000000 0.000000 1.000000
vn 0.000000 1.000000 0.000000
vn 0.000000 1.000000 0.000000
vn 0.000000 1.000000 0.000000
vn 0.000000 1.000000 0.000000
vn 0.000000 -1.000000 0.000000
vn 0.000000 -1.000000 0.000000
vn 0.000000 -1.000000 0.000000
vn 0.000000 -1.000000 0.000000
vn -1.000000 0.000000 0.000000
vn -1.000000 0.000000 0.000000
vn -1.000000 0.000000 0.000000
vn -1.000000 0.000000 0.000000
vn 1.000000 0.000000 0.000000
vn 1.000000 0.000000 0.000000
vn 1.000000 0.000000 0.000000
vn 1.000000 0.000000 0.000000
vn 0.000000 -1.000000 0.000000
vn 0.000000 -1.000000 0.000000
vn 0.000000 -1.000000 0.000000
vn 0.000000 -1.000000 0.000000
vn 0.000000 1.000000 0.000000
vn 0.000000 1.000000 0.000000
vn 0.000000 1.000000 0.000000
vn 0.000000 1.000000 0.000000
vn 1.000000 0.000000 0.000000
vn 1.000000 0.000000 0.000000
vn 1.000000 0.000000 0.000000
vn 1.000000 0.000000 0.000000
vn -1.000000 0.000000 0.000000
vn -1.000000 0.000000 0.000000
vn -1.000000 0.000000 0.000000
vn -1.000000 0.000000 0.000000
s 1
g Big_window Big_Window
f 12/12/1 3/4/2 7/7/3 11/11/4
f 10/10/5 5/5/6 4/3/7 9/9/8
f 11/11/4 7/7/3 5/5/6 10/10/5
f 14/14/9 10/10/5 9/9/8 13/13/10
s off
f 18/17/11 17/18/12 19/19/13 20/20/14
s 1
f 16/16/15 12/12/1 11/11/4 15/15/16
f 6/6/17 14/14/9 13/13/10 1/1/18
f 8/8/19 15/15/16 14/14/9 6/6/17
f 2/2/20 16/16/15 15/15/16 8/8/19
s off
f 22/21/21 21/22/22 23/23/23 24/24/24
f 21/22/25 25/25/26 26/26/27 23/23/28
f 25/25/29 27/27/30 28/28/31 26/26/32
f 27/27/33 22/21/34 24/24/35 28/28/36
f 15/15/37 11/11/38 21/22/39 22/21/40
f 17/18/41 18/17/42 24/24/43 23/23/44
f 11/11/45 10/10/46 25/25/47 21/22/48
f 19/19/49 17/18/50 23/23/51 26/26/52
f 10/10/53 14/14/54 27/27/55 25/25/56
f 20/20/57 19/19/58 26/26/59 28/28/60
f 14/14/61 15/15/62 22/21/63 27/27/64
f 18/17/65 20/20/66 28/28/67 24/24/68
g default
v -20.311953 -6.094444 -0.093070
v -20.311953 -5.905556 -0.093070
v -20.311953 -5.905556 0.093070
v -20.311953 -6.094444 0.093070
v -22.584408 -4.229478 0.093070
v -22.395519 -4.229478 0.093070
v -22.395519 -4.229478 -0.093070
v -22.584408 -4.229478 -0.093070
v -22.395519 -5.905556 -0.093070
v -22.395519 -5.905556 0.093070
v -22.395519 -6.094444 0.093070
v -22.395519 -6.094444 -0.093070
v -22.584408 -5.905556 0.093070
v -22.584408 -5.905556 -0.093070
v -20.311953 -8.094444 -0.093070
v -20.311953 -7.905556 -0.093070
v -20.311953 -7.905556 0.093070
v -20.311953 -8.094444 0.093070
v -22.584408 -6.094444 0.093070
v -22.584408 -6.094444 -0.093070
v -22.395519 -7.905556 -0.093070
v -22.395519 -7.905556 0.093070
v -22.395519 -8.094444 0.093070
v -22.584408 -7.905556 0.093070
v -22.395519 -8.094444 -0.093070
v -22.584408 -7.905556 -0.093070
v -25.571575 -4.229478 0.093070
v -25.382687 -4.229478 0.093070
v -25.382687 -4.229478 -0.093070
v -25.571575 -4.229478 -0.093070
v -25.382687 -5.905556 -0.093070
v -25.382687 -5.905556 0.093070
v -25.382687 -6.094444 0.093070
v -25.382687 -6.094444 -0.093070
v -22.584408 -8.094444 0.093070
v -25.571575 -5.905556 0.093070
v -22.584408 -8.094444 -0.093070
v -25.571575 -5.905556 -0.093070
v -22.395519 -9.770522 0.093070
v -22.395519 -9.770522 -0.093070
v -22.584408 -9.770522 0.093070
v -25.571575 -6.094444 0.093070
v -22.584408 -9.770522 -0.093070
v -25.571575 -6.094444 -0.093070
v -25.382687 -7.905556 -0.093070
v -25.382687 -7.905556 0.093070
v -25.382687 -8.094444 0.093070
v -25.382687 -8.094444 -0.093070
v -25.571575 -7.905556 0.093070
v -27.688047 -5.905556 -0.093070
v -27.688047 -5.905556 0.093070
v -27.688047 -6.094444 0.093070
v -25.571575 -7.905556 -0.093070
v -27.688047 -6.094444 -0.093070
v -25.571575 -8.094444 0.093070
v -25.571575 -8.094444 -0.093070
v -25.382687 -9.770522 0.093070
v -25.382687 -9.770522 -0.093070
v -25.571575 -9.770522 0.093070
v -25.571575 -9.770522 -0.093070
v -27.688047 -7.905556 -0.093070
v -27.688047 -7.905556 0.093070
v -27.688047 -8.094444 0.093070
v -27.688047 -8.094444 -0.093070
vt 0.890256 0.849460
vt 0.876830 0.849460
vt 0.876830 0.836230
vt 0.890256 0.836230
vt 0.916912 0.015672
vt 0.903486 0.015672
vt 0.903486 0.002441
vt 0.876830 0.015672
vt 0.916912 0.849460
vt 0.930143 0.849460
vt 0.930143 0.997559
vt 0.916912 0.997559
vt 0.903486 0.849460
vt 0.903486 0.997559
vt 0.876830 0.997559
vt 0.890256 0.997559
vt 0.890256 0.134806
vt 0.890256 0.015672
vt 0.903486 0.134806
vt 0.916912 0.134806
vt 0.876830 0.134806
vt 0.930143 0.015672
vt 0.930143 0.134806
vt 0.991504 0.740358
vt 0.978078 0.740358
vt 0.978078 0.727128
vt 0.991504 0.727128
vt 0.903486 0.148232
vt 0.916912 0.148232
vt 0.890256 0.148232
vt 0.876830 0.148232
vt 0.964847 0.740358
vt 0.978078 0.888456
vt 0.964847 0.888456
vt 0.951421 0.740358
vt 0.951421 0.888456
vt 0.890256 0.276964
vt 0.890256 0.148232
vt 0.903486 0.276964
vt 0.916912 0.276964
vt 0.991504 0.888456
vt 0.938190 0.740358
vt 0.938190 0.888456
vt 0.876830 0.276964
vt 0.930143 0.148232
vt 0.930143 0.276964
vt 0.890060 0.819803
vt 0.903486 0.819803
vt 0.903486 0.833034
vt 0.930143 0.819803
vt 0.978078 0.204536
vt 0.978077 0.403436
vt 0.964847 0.403436
vt 0.964847 0.204536
vt 0.951421 0.403436
vt 0.951421 0.204536
vt 0.991504 0.204536
vt 0.991504 0.403436
vt 0.938190 0.403436
vt 0.938190 0.204536
vt 0.903486 0.290390
vt 0.916912 0.290390
vt 0.916717 0.700669
vt 0.916717 0.819803
vt 0.903486 0.700669
vt 0.890060 0.700669
vt 0.890256 0.290390
vt 0.876830 0.290390
vt 0.930143 0.700669
vt 0.876830 0.819803
vt 0.876830 0.700669
vt 0.903486 0.409525
vt 0.890256 0.409525
vt 0.890256 0.290390
vt 0.916912 0.409525
vt 0.903486 0.687243
vt 0.890060 0.687243
vt 0.876830 0.409525
vt 0.930143 0.409525
vt 0.930143 0.290390
vt 0.916717 0.687243
vt 0.930143 0.687243
vt 0.978078 0.002441
vt 0.978078 0.201341
vt 0.964847 0.201341
vt 0.964847 0.002441
vt 0.951421 0.201341
vt 0.951421 0.002441
vt 0.991504 0.002442
vt 0.991504 0.201341
vt 0.938190 0.201341
vt 0.938190 0.002441
vt 0.890256 0.422755
vt 0.876830 0.422755
vt 0.916717 0.558511
vt 0.916717 0.687243
vt 0.903486 0.558511
vt 0.890060 0.558511
vt 0.978078 0.406632
vt 0.978078 0.557068
vt 0.964847 0.557068
vt 0.964847 0.406632
vt 0.951421 0.557068
vt 0.951421 0.406632
vt 0.930143 0.558511
vt 0.876830 0.687243
vt 0.876830 0.558511
vt 0.991504 0.557068
vt 0.991504 0.406632
vt 0.938190 0.557068
vt 0.938190 0.406632
vt 0.903486 0.545085
vt 0.890060 0.545085
vt 0.916717 0.545085
vt 0.930143 0.545085
vt 0.903486 0.425951
vt 0.916717 0.425951
vt 0.916717 0.545085
vt 0.890060 0.425951
vt 0.930143 0.425951
vt 0.876830 0.425951
vt 0.876830 0.545085
vt 0.978078 0.573495
vt 0.978078 0.723932
vt 0.964847 0.723932
vt 0.964847 0.573495
vt 0.951421 0.723932
vt 0.951421 0.573495
vt 0.991504 0.723932
vt 0.991504 0.573495
vt 0.938190 0.723932
vt 0.938190 0.573495
vt 0.916717 0.412720
vt 0.930143 0.412720
vt 0.951421 0.737162
vt 0.964847 0.737162
vt 0.951421 0.570299
vt 0.964847 0.570299
vt 0.930143 0.545085
vt 0.930143 0.687243
vt 0.876830 0.290390
vt 0.890060 0.833034
vt 0.876830 0.148232
vt 0.916912 0.002441
vn 1.000000 0.000000 0.000000
vn 1.000000 0.000000 0.000000
vn 1.000000 0.000000 0.000000
vn 1.000000 0.000000 0.000000
vn 0.000000 1.000000 0.000000
vn 0.000000 1.000000 0.000000
vn 0.000000 1.000000 0.000000
vn 0.000000 1.000000 0.000000
vn 0.000000 1.000000 0.000000
vn 0.000000 1.000000 0.000000
vn 0.000000 1.000000 0.000000
vn 0.000000 1.000000 0.000000
vn 0.000000 0.000000 1.000000
vn 0.000000 0.000000 1.000000
vn 0.000000 0.000000 1.000000
vn 0.000000 0.000000 1.000000
vn 0.000000 0.000000 -1.000000
vn 0.000000 0.000000 -1.000000
vn 0.000000 0.000000 -1.000000
vn 0.000000 0.000000 -1.000000
vn 0.000000 -1.000000 0.000000
vn 0.000000 -1.000000 0.000000
vn 0.000000 -1.000000 0.000000
vn 0.000000 -1.000000 0.000000
vn 1.000000 0.000000 0.000000
vn 1.000000 0.000000 0.000000
vn 1.000000 0.000000 0.000000
vn 1.000000 0.000000 0.000000
vn 0.000000 0.000000 1.000000
vn 0.000000 0.000000 1.000000
vn 0.000000 0.000000 1.000000
vn 0.000000 0.000000 -1.000000
vn 0.000000 0.000000 -1.000000
vn 0.000000 0.000000 -1.000000
vn -1.000000 0.000000 0.000000
vn -1.000000 0.000000 0.000000
vn -1.000000 0.000000 0.000000
vn -1.000000 0.000000 0.000000
vn 1.000000 0.000000 0.000000
vn 1.000000 0.000000 0.000000
vn 1.000000 0.000000 0.000000
vn 1.000000 0.000000 0.000000
vn 0.000000 0.000000 1.000000
vn 0.000000 0.000000 -1.000000
vn 0.000000 1.000000 0.000000
vn 0.000000 1.000000 0.000000
vn 0.000000 1.000000 0.000000
vn 0.000000 1.000000 0.000000
vn 0.000000 0.000000 1.000000
vn 0.000000 0.000000 1.000000
vn 0.000000 0.000000 1.000000
vn 0.000000 0.000000 1.000000
vn 1.000000 0.000000 0.000000
vn 1.000000 0.000000 0.000000
vn 1.000000 0.000000 0.000000
vn 1.000000 0.000000 0.000000
vn 0.000000 0.000000 1.000000
vn 0.000000 0.000000 -1.000000
vn 0.000000 0.000000 -1.000000
vn 0.000000 0.000000 -1.000000
vn 0.000000 0.000000 -1.000000
vn 0.000000 -1.000000 0.000000
vn 0.000000 -1.000000 0.000000
vn 0.000000 -1.000000 0.000000
vn 0.000000 -1.000000 0.000000
vn 0.000000 0.000000 -1.000000
vn -1.000000 0.000000 0.000000
vn -1.000000 0.000000 0.000000
vn -1.000000 0.000000 0.000000
vn -1.000000 0.000000 0.000000
vn 0.000000 1.000000 0.000000
vn 0.000000 1.000000 0.000000
vn 0.000000 1.000000 0.000000
vn 0.000000 1.000000 0.000000
vn 0.000000 1.000000 0.000000
vn 0.000000 1.000000 0.000000
vn 0.000000 1.000000 0.000000
vn 0.000000 1.000000 0.000000
vn 0.000000 0.000000 1.000000
vn 0.000000 0.000000 1.000000
vn 0.000000 0.000000 -1.000000
vn 0.000000 0.000000 -1.000000
vn 0.000000 -1.000000 0.000000
vn 0.000000 -1.000000 0.000000
vn 0.000000 -1.000000 0.000000
vn 0.000000 -1.000000 0.000000
vn 0.000000 0.000000 1.000000
vn 1.000000 0.000000 0.000000
vn 1.000000 0.000000 0.000000
vn 1.000000 0.000000 0.000000
vn 1.000000 0.000000 0.000000
vn 0.000000 0.000000 1.000000
vn 0.000000 0.000000 1.000000
vn 0.000000 0.000000 1.000000
vn 0.000000 0.000000 -1.000000
vn 0.000000 0.000000 -1.000000
vn 0.000000 0.000000 -1.000000
vn 0.000000 0.000000 -1.000000
vn -1.000000 0.000000 0.000000
vn -1.000000 0.000000 0.000000
vn -1.000000 0.000000 0.000000
vn -1.000000 0.000000 0.000000
vn 1.000000 0.000000 0.000000
vn 1.000000 0.000000 0.000000
vn 1.000000 0.000000 0.000000
vn 1.000000 0.000000 0.000000
vn 0.000000 0.000000 1.000000
vn 0.000000 0.000000 1.000000
vn 0.000000 0.000000 1.000000
vn 0.000000 0.000000 -1.000000
vn 0.000000 0.000000 -1.000000
vn -1.000000 0.000000 0.000000
vn -1.000000 0.000000 0.000000
vn -1.000000 0.000000 0.000000
vn -1.000000 0.000000 0.000000
vn 0.000000 0.000000 -1.000000
vn 0.000000 1.000000 0.000000
vn 0.000000 1.000000 0.000000
vn 0.000000 1.000000 0.000000
vn 0.000000 1.000000 0.000000
vn 0.000000 0.000000 1.000000
vn 0.000000 0.000000 1.000000
vn 0.000000 0.000000 -1.000000
vn 0.000000 0.000000 -1.000000
vn 0.000000 -1.000000 0.000000
vn 0.000000 -1.000000 0.000000
vn 0.000000 -1.000000 0.000000
vn 0.000000 -1.000000 0.000000
vn 0.000000 -1.000000 0.000000
vn 0.000000 -1.000000 0.000000
vn 0.000000 -1.000000 0.000000
vn 0.000000 -1.000000 0.000000
vn 1.000000 0.000000 0.000000
vn 1.000000 0.000000 0.000000
vn 1.000000 0.000000 0.000000
vn 1.000000 0.000000 0.000000
vn 0.000000 0.000000 1.000000
vn 0.000000 1.000000 0.000000
vn 0.000000 1.000000 0.000000
vn 0.000000 1.000000 0.000000
vn 0.000000 1.000000 0.000000
vn 0.000000 0.000000 1.000000
vn 0.000000 0.000000 1.000000
vn 0.000000 0.000000 -1.000000
vn -1.000000 0.000000 0.000000
vn -1.000000 0.000000 0.000000
vn -1.000000 0.000000 0.000000
vn -1.000000 0.000000 0.000000
vn 0.000000 0.000000 -1.000000
vn 0.000000 0.000000 -1.000000
vn 0.000000 -1.000000 0.000000
vn 0.000000 -1.000000 0.000000
vn 0.000000 -1.000000 0.000000
vn 0.000000 -1.000000 0.000000
vn 0.000000 0.000000 1.000000
vn 0.000000 0.000000 -1.000000
vn -1.000000 0.000000 0.000000
vn -1.000000 0.000000 0.000000
vn -1.000000 0.000000 0.000000
vn -1.000000 0.000000 0.000000
vn 1.000000 0.000000 0.000000
vn 1.000000 0.000000 0.000000
vn 1.000000 0.000000 0.000000
vn 1.000000 0.000000 0.000000
vn 0.000000 0.000000 1.000000
vn 0.000000 0.000000 1.000000
vn 0.000000 0.000000 -1.000000
vn 0.000000 0.000000 -1.000000
vn -1.000000 0.000000 0.000000
vn -1.000000 0.000000 0.000000
vn -1.000000 0.000000 0.000000
vn -1.000000 0.000000 0.000000
vn 0.000000 1.000000 0.000000
vn 0.000000 1.000000 0.000000
vn 0.000000 1.000000 0.000000
vn 0.000000 1.000000 0.000000
vn 0.000000 0.000000 1.000000
vn 0.000000 0.000000 1.000000
vn 0.000000 0.000000 -1.000000
vn 0.000000 0.000000 -1.000000
vn 0.000000 -1.000000 0.000000
vn 0.000000 -1.000000 0.000000
vn 0.000000 -1.000000 0.000000
vn 0.000000 -1.000000 0.000000
vn 0.000000 -1.000000 0.000000
vn 0.000000 -1.000000 0.000000
vn 0.000000 -1.000000 0.000000
vn 0.000000 -1.000000 0.000000
vn -1.000000 0.000000 0.000000
vn -1.000000 0.000000 0.000000
vn -1.000000 0.000000 0.000000
vn -1.000000 0.000000 0.000000
s off
g Big_Window polySurface5
f 29/29/69 30/30/70 31/31/71 32/32/72
f 33/33/73 34/34/74 35/35/75 36/172/76
f 31/37/77 30/38/78 37/39/79 38/40/80
s 1
f 32/41/81 31/37/82 38/40/83 39/42/84
s 2
f 37/43/85 30/30/86 29/29/87 40/44/88
s off
f 29/29/89 32/41/90 39/42/91 40/44/92
f 37/45/93 35/46/94 34/34/95 38/47/96
s 1
f 38/47/83 34/34/97 33/33/98 41/48/99
s 2
f 36/36/100 35/46/101 37/45/85 42/49/102
s off
f 41/48/103 33/33/104 36/50/105 42/51/106
f 43/52/107 44/53/108 45/54/109 46/55/110
s 1
f 39/56/84 38/47/83 41/48/99 47/57/111
s 2
f 37/45/85 40/58/88 48/171/112 42/49/102
s off
f 45/60/113 44/53/114 49/61/115 50/62/116
s 1
f 46/63/117 45/60/118 50/62/119 51/64/120
s off
f 49/65/121 40/66/122 39/56/123 50/67/124
s 1
f 50/67/119 39/56/84 47/57/111 52/68/125
s 2
f 49/61/126 44/53/127 43/52/128 53/69/129
s off
f 43/70/130 46/63/131 51/64/132 53/71/133
s 2
f 40/66/88 49/65/126 54/72/134 48/59/112
s off
f 52/68/135 47/57/136 48/73/137 54/74/138
f 55/75/139 56/76/140 57/77/141 58/170/142
f 42/79/143 59/80/144 60/81/145 41/82/146
s 1
f 41/82/99 60/81/147 61/83/148 47/84/111
s 2
f 59/80/149 42/79/102 48/85/112 62/86/150
s off
f 47/84/151 61/83/152 62/87/153 48/88/154
s 1
f 51/89/120 50/67/119 52/68/125 63/90/155
s off
f 59/91/156 57/92/157 56/76/158 60/93/159
s 1
f 60/93/147 56/76/160 55/75/161 64/94/162
s 2
f 49/65/126 53/95/129 65/169/163 54/72/134
f 58/78/164 57/92/165 59/91/149 66/97/166
s off
f 64/94/167 55/75/168 58/98/169 66/99/170
f 67/100/171 68/101/172 53/102/173 51/89/174
s 1
f 69/103/175 67/100/176 51/89/120 63/90/155
f 61/104/148 60/93/147 64/94/162 70/105/177
s 2
f 53/102/129 68/101/178 71/106/179 65/96/163
s off
f 71/107/180 69/103/181 63/90/182 65/108/183
s 2
f 59/91/149 62/109/150 72/168/184 66/97/166
s off
f 54/111/185 73/112/186 74/113/187 52/114/188
s 1
f 52/114/125 74/113/189 75/115/190 63/116/155
s 2
f 73/112/191 54/111/134 65/117/163 76/118/192
s off
f 63/116/193 75/115/194 76/119/195 65/120/196
f 71/106/197 68/101/198 67/121/199 69/122/200
f 73/123/201 62/124/202 61/104/203 74/125/204
s 1
f 74/125/189 61/104/148 70/105/177 77/126/205
s off
f 66/127/206 78/128/207 79/129/208 64/130/209
s 1
f 64/130/162 79/129/210 80/131/211 70/132/177
s 2
f 62/124/150 73/123/191 81/133/212 72/110/184
s off
f 77/126/213 70/105/214 72/134/215 81/135/216
s 2
f 82/136/217 78/128/218 66/127/166 72/137/184
s off
f 70/132/219 80/131/220 82/138/221 72/139/222
s 1
f 75/140/190 74/125/189 77/126/205 83/141/223
s 2
f 73/123/191 76/142/192 84/167/224 81/133/212
s off
f 80/131/225 79/129/226 78/166/227 82/165/228
f 85/144/229 86/145/230 76/146/231 75/140/232
s 1
f 87/147/233 85/144/234 75/140/190 83/141/223
s 2
f 76/146/192 86/145/235 88/148/236 84/143/224
s off
f 88/149/237 87/147/238 83/141/239 84/150/240
f 81/151/241 89/152/242 90/153/243 77/154/244
s 1
f 77/154/205 90/153/245 91/155/246 83/156/223
s 2
f 92/157/247 89/152/248 81/151/212 84/158/224
s off
f 83/156/249 91/155/250 92/159/251 84/160/252
f 88/148/253 86/145/254 85/161/255 87/162/256
f 91/155/257 90/153/258 89/164/259 92/163/260
