# This file uses centimeters as units for non-parametric coordinates.

g default
v -13.000000 13.000000 1.000000
v -11.000000 13.000000 1.000000
v -13.000000 23.000000 1.000000
v -11.000000 23.000000 1.000000
v -13.000000 23.000000 -1.000000
v -11.000000 23.000000 -1.000000
v -13.000000 13.000000 -1.000000
v -11.000000 13.000000 -1.000000
vt 0.085368 0.002441
vt 0.168294 0.002441
vt 0.085368 0.417074
vt 0.168294 0.417074
vt 0.085368 0.500000
vt 0.168294 0.500000
vt 0.085368 0.914632
vt 0.168294 0.914632
vt 0.085368 0.997559
vt 0.168294 0.997559
vt 0.251221 0.002441
vt 0.251221 0.417074
vt 0.002441 0.002441
vt 0.002441 0.417074
vn 0.000000 0.000000 1.000000
vn 0.000000 0.000000 1.000000
vn 0.000000 0.000000 1.000000
vn 0.000000 0.000000 1.000000
vn 0.000000 1.000000 0.000000
vn 0.000000 1.000000 0.000000
vn 0.000000 1.000000 0.000000
vn 0.000000 1.000000 0.000000
vn 0.000000 0.000000 -1.000000
vn 0.000000 0.000000 -1.000000
vn 0.000000 0.000000 -1.000000
vn 0.000000 0.000000 -1.000000
vn 0.000000 -1.000000 0.000000
vn 0.000000 -1.000000 0.000000
vn 0.000000 -1.000000 0.000000
vn 0.000000 -1.000000 0.000000
vn 1.000000 0.000000 0.000000
vn 1.000000 0.000000 0.000000
vn 1.000000 0.000000 0.000000
vn 1.000000 0.000000 0.000000
vn -1.000000 0.000000 0.000000
vn -1.000000 0.000000 0.000000
vn -1.000000 0.000000 0.000000
vn -1.000000 0.000000 0.000000
s off
g Mid_pillar
f 1/1/1 2/2/2 4/4/3 3/3/4
f 3/3/5 4/4/6 6/6/7 5/5/8
f 5/5/9 6/6/10 8/8/11 7/7/12
f 7/7/13 8/8/14 2/10/15 1/9/16
f 2/2/17 8/11/18 6/12/19 4/4/20
f 7/13/21 1/1/22 3/3/23 5/14/24
