# This file uses centimeters as units for non-parametric coordinates.

g default
v -24.000000 0.000000 0.000000
v -24.000000 12.000002 0.000000
v -30.000000 12.000002 0.000000
v -30.000000 0.000000 0.000000
v -30.000000 5.000001 0.000000
v -24.000000 5.000001 0.000000
v -30.000000 9.000000 0.000000
v -24.000000 9.000000 0.000000
v -29.000000 0.000000 0.000000
v -29.000000 5.000001 0.000000
v -29.000000 9.000000 0.000000
v -29.000000 12.000002 0.000000
v -25.000000 0.000000 0.000000
v -25.000000 5.000001 0.000000
v -25.000000 9.000000 0.000000
v -25.000000 12.000002 0.000000
v -28.575893 5.424107 0.000000
v -28.575893 8.575895 0.000000
v -25.424107 5.424107 0.000000
v -25.424107 8.575895 0.000000
v -29.000000 5.000001 0.116860
v -29.000000 9.000000 0.116860
v -28.575893 5.424107 0.116860
v -28.575893 8.575895 0.116860
v -25.000000 5.000001 0.116860
v -25.424107 5.424107 0.116860
v -25.000000 9.000000 0.116860
v -25.424107 8.575895 0.116860
vt 0.005331 0.004487
vt 0.500756 0.003844
vt 0.495175 0.995524
vt 0.001343 0.996166
vt 0.005860 0.411869
vt 0.497742 0.413085
vt 0.001024 0.751133
vt 0.494857 0.750491
vt 0.086792 0.004381
vt 0.087321 0.411763
vt 0.082429 0.751027
vt 0.082747 0.996060
vt 0.417410 0.003952
vt 0.417942 0.413189
vt 0.413584 0.750597
vt 0.413902 0.995630
vt 0.125342 0.703229
vt 0.127837 0.458017
vt 0.369733 0.459970
vt 0.367367 0.703429
vt 0.084897 0.744002
vt 0.087856 0.416979
vt 0.121484 0.452003
vt 0.119381 0.709667
vt 0.410107 0.419741
vt 0.375657 0.453572
vt 0.407371 0.743889
vt 0.373726 0.709369
vn 0.000000 0.000000 1.000000
vn 0.000000 0.000000 1.000000
vn 0.000000 0.000000 1.000000
vn 0.000000 0.000000 1.000000
vn 0.000000 0.000000 1.000000
vn 0.000000 0.000000 1.000000
vn 0.000000 0.000000 1.000000
vn 0.000000 0.000000 1.000000
vn 0.000000 0.000000 1.000000
vn 0.000000 0.000000 1.000000
vn 0.000000 0.000000 1.000000
vn 0.000000 0.000000 1.000000
vn 0.000000 0.000000 1.000000
vn 0.000000 0.000000 1.000000
vn 0.000000 0.000000 1.000000
vn 0.000000 0.000000 1.000000
vn 0.000000 0.000000 1.000000
vn 0.000000 0.000000 1.000000
vn 0.000000 0.000000 1.000000
vn 0.000000 0.000000 1.000000
vn 0.000000 0.000000 1.000000
vn 0.000000 0.000000 1.000000
vn 0.000000 0.000000 1.000000
vn 0.000000 0.000000 1.000000
vn 0.000000 0.000000 1.000000
vn 0.000000 0.000000 1.000000
vn 0.000000 0.000000 1.000000
vn 0.000000 0.000000 1.000000
vn -0.000000 0.000000 1.000000
vn -0.000000 0.000000 1.000000
vn -0.000000 0.000000 1.000000
vn -0.000000 0.000000 1.000000
vn 0.000000 0.000000 1.000000
vn 0.000000 0.000000 1.000000
vn 0.000000 0.000000 1.000000
vn 0.000000 0.000000 1.000000
vn -1.000000 0.000000 0.000000
vn -1.000000 0.000000 0.000000
vn -1.000000 0.000000 0.000000
vn -1.000000 0.000000 0.000000
vn 1.000000 0.000000 0.000000
vn 1.000000 0.000000 0.000000
vn 1.000000 0.000000 0.000000
vn 1.000000 0.000000 0.000000
vn 0.000000 -1.000000 0.000000
vn 0.000000 -1.000000 0.000000
vn 0.000000 -1.000000 0.000000
vn 0.000000 -1.000000 0.000000
vn 0.000000 1.000000 0.000000
vn 0.000000 1.000000 0.000000
vn 0.000000 1.000000 0.000000
vn 0.000000 1.000000 0.000000
vn 1.000000 0.000000 0.000000
vn 1.000000 0.000000 0.000000
vn 1.000000 0.000000 0.000000
vn 1.000000 0.000000 0.000000
vn -1.000000 0.000000 0.000000
vn -1.000000 0.000000 0.000000
vn -1.000000 0.000000 0.000000
vn -1.000000 0.000000 0.000000
vn 0.000000 1.000000 0.000000
vn 0.000000 1.000000 0.000000
vn 0.000000 1.000000 0.000000
vn 0.000000 1.000000 0.000000
vn 0.000000 -1.000000 0.000000
vn 0.000000 -1.000000 0.000000
vn 0.000000 -1.000000 0.000000
vn 0.000000 -1.000000 0.000000
s 1
g WindowTwo WindowTwo
f 7/7/1 11/11/2 12/12/3 3/4/4
f 4/1/5 9/9/6 10/10/7 5/5/8
f 5/5/8 10/10/7 11/11/2 7/7/1
f 9/9/6 13/13/9 14/14/10 10/10/7
s off
f 18/17/11 17/18/12 19/19/13 20/20/14
s 1
f 12/12/3 11/11/2 15/15/15 16/16/16
f 13/13/9 1/2/17 6/6/18 14/14/10
f 15/15/15 14/14/10 6/6/18 8/8/19
f 16/16/16 15/15/15 8/8/19 2/3/20
s off
f 22/21/21 21/22/22 23/23/23 24/24/24
f 21/22/25 25/25/26 26/26/27 23/23/28
f 25/25/29 27/27/30 28/28/31 26/26/32
f 27/27/33 22/21/34 24/24/35 28/28/36
f 11/11/37 10/10/38 21/22/39 22/21/40
f 17/18/41 18/17/42 24/24/43 23/23/44
f 10/10/45 14/14/46 25/25/47 21/22/48
f 19/19/49 17/18/50 23/23/51 26/26/52
f 14/14/53 15/15/54 27/27/55 25/25/56
f 20/20/57 19/19/58 26/26/59 28/28/60
f 15/15/61 11/11/62 22/21/63 27/27/64
f 18/17/65 20/20/66 28/28/67 24/24/68
g default
v -25.429546 6.905556 -0.049134
v -25.429546 7.094444 -0.049134
v -25.429546 7.094444 0.049134
v -25.429546 6.905556 0.049134
v -27.094444 8.561778 0.049134
v -26.905556 8.561778 0.049134
v -26.905556 8.561778 -0.049134
v -27.094444 8.561778 -0.049134
v -26.905556 7.094444 -0.049134
v -26.905556 7.094444 0.049134
v -26.905556 6.905556 0.049134
v -27.094444 7.094444 0.049134
v -26.905556 6.905556 -0.049134
v -27.094444 7.094444 -0.049134
v -27.094444 6.905556 0.049134
v -27.094444 6.905556 -0.049134
v -26.905556 5.438222 0.049134
v -26.905556 5.438222 -0.049134
v -28.570454 7.094444 -0.049134
v -28.570454 7.094444 0.049134
v -27.094444 5.438222 0.049134
v -28.570454 6.905556 0.049134
v -27.094444 5.438222 -0.049134
v -28.570454 6.905556 -0.049134
vt 0.607919 0.121392
vt 0.623142 0.121392
vt 0.623142 0.129311
vt 0.607919 0.129311
vt 0.556393 0.262085
vt 0.571615 0.262085
vt 0.571615 0.270005
vt 0.548473 0.262085
vt 0.584778 0.121392
vt 0.576858 0.121392
vt 0.576858 0.002442
vt 0.571615 0.143834
vt 0.533251 0.143834
vt 0.533251 0.262085
vt 0.600000 0.121392
vt 0.571615 0.128612
vt 0.556393 0.143834
vt 0.623142 0.002442
vt 0.607919 0.002442
vt 0.548473 0.143834
vt 0.636304 0.002442
vt 0.533251 0.128612
vt 0.548473 0.128612
vt 0.571615 0.010361
vt 0.533251 0.010361
vt 0.659446 0.002442
vt 0.659446 0.121392
vt 0.651527 0.121392
vt 0.651527 0.002442
vt 0.556393 0.010361
vt 0.636304 0.121392
vt 0.548473 0.010361
vt 0.674668 0.121392
vt 0.674668 0.002442
vt 0.628385 0.121392
vt 0.628385 0.002442
vt 0.533251 0.002442
vt 0.548473 0.002442
vt 0.556393 0.270005
vt 0.636304 0.129311
vt 0.651527 0.129311
vt 0.556393 0.128612
vt 0.525332 0.128612
vt 0.525332 0.010361
vt 0.525332 0.262085
vt 0.525332 0.143834
vt 0.584778 0.002442
vt 0.600000 0.002442
vn 1.000000 0.000000 0.000000
vn 1.000000 0.000000 0.000000
vn 1.000000 0.000000 0.000000
vn 1.000000 0.000000 0.000000
vn 0.000000 1.000000 0.000000
vn 0.000000 1.000000 0.000000
vn 0.000000 1.000000 0.000000
vn 0.000000 1.000000 0.000000
vn 0.000000 1.000000 0.000000
vn 0.000000 1.000000 0.000000
vn 0.000000 1.000000 0.000000
vn 0.000000 1.000000 0.000000
vn 1.000000 0.000000 0.000000
vn 1.000000 0.000000 0.000000
vn 1.000000 0.000000 0.000000
vn 1.000000 0.000000 0.000000
vn 0.000000 0.000000 1.000000
vn 0.000000 0.000000 1.000000
vn 0.000000 0.000000 1.000000
vn 0.000000 0.000000 1.000000
vn 0.000000 0.000000 1.000000
vn 0.000000 0.000000 1.000000
vn 0.000000 0.000000 1.000000
vn 0.000000 0.000000 -1.000000
vn 0.000000 0.000000 -1.000000
vn 0.000000 0.000000 -1.000000
vn 0.000000 0.000000 -1.000000
vn 0.000000 0.000000 -1.000000
vn 0.000000 0.000000 -1.000000
vn 0.000000 0.000000 -1.000000
vn 0.000000 -1.000000 0.000000
vn 0.000000 -1.000000 0.000000
vn 0.000000 -1.000000 0.000000
vn 0.000000 -1.000000 0.000000
vn -1.000000 0.000000 0.000000
vn -1.000000 0.000000 0.000000
vn -1.000000 0.000000 0.000000
vn -1.000000 0.000000 0.000000
vn 0.000000 0.000000 1.000000
vn 0.000000 0.000000 -1.000000
vn 1.000000 0.000000 0.000000
vn 1.000000 0.000000 0.000000
vn 1.000000 0.000000 0.000000
vn 1.000000 0.000000 0.000000
vn 0.000000 1.000000 0.000000
vn 0.000000 1.000000 0.000000
vn 0.000000 1.000000 0.000000
vn 0.000000 1.000000 0.000000
vn 0.000000 0.000000 1.000000
vn 0.000000 0.000000 1.000000
vn 0.000000 0.000000 1.000000
vn 0.000000 0.000000 1.000000
vn 0.000000 0.000000 -1.000000
vn 0.000000 0.000000 -1.000000
vn 0.000000 0.000000 -1.000000
vn 0.000000 0.000000 -1.000000
vn -1.000000 0.000000 0.000000
vn -1.000000 0.000000 0.000000
vn -1.000000 0.000000 0.000000
vn -1.000000 0.000000 0.000000
vn 0.000000 -1.000000 0.000000
vn 0.000000 -1.000000 0.000000
vn 0.000000 -1.000000 0.000000
vn 0.000000 -1.000000 0.000000
vn 0.000000 -1.000000 0.000000
vn 0.000000 -1.000000 0.000000
vn 0.000000 -1.000000 0.000000
vn 0.000000 -1.000000 0.000000
vn -1.000000 0.000000 0.000000
vn -1.000000 0.000000 0.000000
vn -1.000000 0.000000 0.000000
vn -1.000000 0.000000 0.000000
s off
g WindowTwo polySurface4
f 29/29/69 30/30/70 31/31/71 32/32/72
f 33/33/73 34/34/74 35/35/75 36/67/76
f 31/37/77 30/38/78 37/39/79 38/75/80
f 37/41/81 35/42/82 34/73/83 38/74/84
s 1
f 32/43/85 31/37/86 38/75/87 39/76/88
f 38/40/87 34/34/89 33/33/90 40/45/91
s 2
f 37/46/92 30/30/93 29/29/94 41/47/95
f 36/36/96 35/42/97 37/41/92 42/48/98
s off
f 29/29/99 32/43/100 39/76/101 41/47/102
f 40/45/103 33/33/104 36/36/105 42/48/106
s 1
f 39/44/88 38/40/87 40/45/91 43/70/107
s 2
f 37/41/92 41/50/95 44/51/108 42/48/98
s off
f 45/72/109 46/53/110 41/50/111 39/71/112
f 42/54/113 47/55/114 48/56/115 40/57/116
s 1
f 49/58/117 45/52/118 39/44/88 43/70/107
f 40/57/91 48/56/119 50/59/120 43/49/107
s 2
f 41/50/95 46/53/121 51/60/122 44/51/108
f 52/61/123 47/55/124 42/54/98 44/62/108
s off
f 51/60/125 49/58/126 43/70/127 44/51/128
f 43/49/129 50/59/130 52/63/131 44/64/132
f 51/60/133 46/53/134 45/65/135 49/66/136
f 50/59/137 48/56/138 47/69/139 52/68/140
